<svg id="Icons" style="enable-background:new 0 0 32 32;" version="1.1" viewBox="0 0 32 32" xml:space="preserve" xmlns="http://www.w3.org/2000/svg" xmlns:xlink="http://www.w3.org/1999/xlink"><style type="text/css">
	.st0{fill:none;stroke:#000000;stroke-width:2;stroke-linecap:round;stroke-linejoin:round;stroke-miterlimit:10;}
	.st1{fill:none;stroke:#000000;stroke-width:2;stroke-linecap:round;stroke-linejoin:round;}
	.st2{fill:none;stroke:#000000;stroke-width:2;stroke-linecap:round;stroke-linejoin:round;stroke-dasharray:6,6;}
	.st3{fill:none;stroke:#000000;stroke-width:2;stroke-linecap:round;stroke-linejoin:round;stroke-dasharray:4,4;}
	.st4{fill:none;stroke:#000000;stroke-width:2;stroke-linecap:round;}
	.st5{fill:none;stroke:#000000;stroke-width:2;stroke-linecap:round;stroke-dasharray:3.1081,3.1081;}
	
		.st6{fill:none;stroke:#000000;stroke-width:2;stroke-linecap:round;stroke-linejoin:round;stroke-miterlimit:10;stroke-dasharray:4,3;}
</style><path class="st0" d="M4,17C4,10.4,9.4,5,16,5s12,5.4,12,12"/><rect class="st0" height="2" width="2" x="3" y="16"/><rect class="st0" height="2" width="2" x="27" y="16"/><rect class="st0" height="2" width="2" x="15" y="4"/><circle class="st0" cx="4" cy="5" r="1"/><circle class="st0" cx="28" cy="5" r="1"/><line class="st0" x1="4" x2="28" y1="5" y2="5"/><path class="st0" d="M16,10l-6,9.2c1.6,1.8,2.8,4.1,3.4,6.8H16h2.6c0.6-2.7,1.8-5.1,3.4-6.8L16,10z"/><line class="st0" x1="16" x2="16" y1="17" y2="10.3"/><circle class="st0" cx="16" cy="19" r="2"/><rect class="st0" height="3" width="6" x="13" y="26"/></svg>